<?xml version="1.0" encoding="utf-8"?>
<svg xmlns="http://www.w3.org/2000/svg"
     viewBox="0 0 1200 1200">
    <title>Graf</title>

    <path d="m465.53 285.85c-78.816 0-142.93-64.117-142.93-142.93 0.003906-78.812 64.129-142.92 142.93-142.92 78.805 0 142.93 64.117 142.93 142.93 0 78.812-64.117 142.92-142.93 142.92zm0-267.85c-68.891 0-124.93 56.039-124.93 124.93s56.039 124.93 124.93 124.93c68.879 0 124.93-56.039 124.93-124.93 0-68.895-56.039-124.93-124.93-124.93z" />
    <path d="m197.68 804.36c-78.805 0-142.93-64.129-142.93-142.93 0-78.805 64.117-142.93 142.93-142.93 78.816 0 142.93 64.117 142.93 142.93 0 78.816-64.129 142.93-142.93 142.93zm0-267.86c-68.879 0-124.93 56.039-124.93 124.93s56.043 124.93 124.93 124.93 124.92-56.051 124.92-124.93c0-68.883-56.043-124.93-124.92-124.93z" />
    <path d="m765.65 735.35c-78.805 0-142.92-64.129-142.92-142.93 0-78.805 64.117-142.93 142.92-142.93 78.805 0 142.93 64.117 142.93 142.93-0.003906 78.816-64.129 142.93-142.93 142.93zm0-267.85c-68.879 0-124.92 56.039-124.92 124.93s56.039 124.93 124.92 124.93c68.879 0 124.93-56.051 124.93-124.93-0.003906-68.883-56.055-124.93-124.93-124.93z" />
    <path d="m510.64 1200c-78.805 0-142.93-64.117-142.93-142.92s64.117-142.93 142.93-142.93c78.816 0 142.93 64.129 142.93 142.93-0.003906 78.805-64.117 142.92-142.93 142.92zm0-267.85c-68.879 0-124.93 56.051-124.93 124.93s56.055 124.92 124.93 124.92c68.879 0 124.93-56.039 124.93-124.92-0.003906-68.879-56.055-124.93-124.93-124.93z" />
    <path d="m243.53 450.98c-1.7539 0-3.5273-0.50391-5.0898-1.5703-4.0938-2.8086-5.1484-8.4102-2.3281-12.516l88.07-128.44c2.8086-4.1055 8.4258-5.125 12.516-2.3281 4.0938 2.8086 5.1484 8.4102 2.3281 12.516l-88.055 128.42c-1.7539 2.5469-4.5742 3.9141-7.4414 3.9141z" />
    <path d="m243.53 450.98c-3.9727 0-7.6094-2.6406-8.6875-6.6602l-25.691-95.398c-1.2969-4.8008 1.5469-9.7422 6.3477-11.027 4.7539-1.3086 9.7305 1.5469 11.027 6.3477l25.691 95.398c1.2969 4.8008-1.5469 9.7422-6.3477 11.027-0.76563 0.20312-1.5586 0.3125-2.3398 0.3125z" />
    <path d="m243.53 450.98c-4.1758 0-7.9219-2.9141-8.7969-7.1641-1.0078-4.8594 2.1133-9.6367 6.9844-10.645l88.055-18.348c4.8242-1.0078 9.6367 2.1133 10.645 6.9844 1.0078 4.8594-2.1133 9.6367-6.9844 10.645l-88.055 18.348c-0.62109 0.12109-1.2344 0.17969-1.8477 0.17969z" />
    <path d="m675.76 419.79c-2.8672 0-5.6992-1.3672-7.4297-3.9102l-88.055-128.41c-2.8086-4.1055-1.7656-9.707 2.3281-12.516 4.1172-2.7969 9.707-1.7656 12.516 2.3281l88.043 128.43c2.8086 4.1055 1.7656 9.707-2.3281 12.516-1.5469 1.0664-3.3242 1.5703-5.0742 1.5703z" />
    <path d="m675.76 419.79c-0.76953 0-1.5586-0.097656-2.3398-0.3125-4.7891-1.2852-7.6445-6.2266-6.3477-11.027l25.691-95.398c1.2969-4.8008 6.2539-7.6211 11.039-6.3477 4.7891 1.2852 7.6445 6.2266 6.3477 11.027l-25.691 95.398c-1.1055 4.0195-4.7305 6.6602-8.6992 6.6602z" />
    <path d="m675.76 419.79c-0.61328 0-1.2344-0.058594-1.8477-0.19141l-88.043-18.348c-4.8711-1.0078-7.9922-5.7852-6.9844-10.645 1.0078-4.8711 5.8086-8.0156 10.645-6.9844l88.055 18.348c4.8594 1.0078 7.9805 5.7852 6.9727 10.645-0.87891 4.2578-4.6211 7.1758-8.7969 7.1758z" />
    <path d="m510.62 858.27c-4.5977 0-8.5195-3.5039-8.9531-8.1719l-45.109-486.18c-0.46875-4.957 3.1797-9.3359 8.125-9.793 4.8711-0.53906 9.3359 3.1797 9.793 8.125l45.121 486.19c0.46875 4.9453-3.1797 9.3359-8.125 9.793-0.28906 0.023437-0.56641 0.035156-0.85156 0.035156z" />
    <path d="m510.64 858.27c-2.3516 0-4.7148-0.92578-6.4805-2.7461l-70.789-73.379c-3.457-3.5742-3.3477-9.2656 0.22656-12.73 3.5742-3.4219 9.2773-3.3242 12.719 0.23828l70.789 73.379c3.457 3.5742 3.3477 9.2656-0.22656 12.73-1.7383 1.668-3.9844 2.5078-6.2383 2.5078z" />
    <path d="m510.64 858.27c-1.9453 0-3.8984-0.63672-5.5547-1.9219-3.9102-3.0703-4.5859-8.7344-1.5117-12.637l57.637-73.379c3.0703-3.9102 8.7227-4.5703 12.637-1.5234 3.9102 3.0703 4.5859 8.7344 1.5117 12.637l-57.637 73.379c-1.7773 2.2695-4.418 3.4453-7.082 3.4453z" />
    <path d="m701.44 983.03c-4.9688 0-9-4.0312-9-9s4.0312-9 9-9c22.535-0.14453 366.1-81.84 419.05-274.48 42.059-153.01-109.14-334.67-449.39-539.91-4.2461-2.5664-5.6289-8.1016-3.0586-12.348 2.5781-4.2617 8.1016-5.6523 12.359-3.0586 348.46 210.2 502.3 398.86 457.26 560.73-56.5 203.06-412.9 287.06-436.23 287.06z" />
    <path d="m701.44 983.03c-1.2227 0-2.4492-0.25391-3.6367-0.75781-4.5469-2.0039-6.6133-7.3203-4.6094-11.867l39.898-90.516c2.0156-4.5469 7.3203-6.5742 11.867-4.6094 4.5469 2.0039 6.6133 7.3203 4.6094 11.867l-39.898 90.516c-1.4766 3.3633-4.7773 5.3672-8.2305 5.3672z" />
    <path d="m790.25 1031.9c-1.4648 0-2.9531-0.35938-4.3203-1.1172l-88.824-48.91c-4.3555-2.3984-5.9414-7.8711-3.5508-12.227 2.3867-4.3672 7.8711-5.9297 12.227-3.5508l88.824 48.91c4.3555 2.3984 5.9414 7.8711 3.5508 12.227-1.6406 2.9883-4.7227 4.668-7.9062 4.668z" />
</svg>
